<svg width="203" height="56" viewBox="0 0 203 56" fill="none" xmlns="http://www.w3.org/2000/svg">
<path d="M82.112 31.224C80.4693 31.224 78.9973 30.9573 77.696 30.424C76.3947 29.8907 75.3493 29.1013 74.56 28.056C73.792 27.0107 73.3867 25.752 73.344 24.28H79.168C79.2533 25.112 79.5413 25.752 80.032 26.2C80.5227 26.6267 81.1627 26.84 81.952 26.84C82.7627 26.84 83.4027 26.6587 83.872 26.296C84.3413 25.912 84.576 25.3893 84.576 24.728C84.576 24.1733 84.384 23.7147 84 23.352C83.6373 22.9893 83.1787 22.6907 82.624 22.456C82.0907 22.2213 81.3227 21.9547 80.32 21.656C78.8693 21.208 77.6853 20.76 76.768 20.312C75.8507 19.864 75.0613 19.2027 74.4 18.328C73.7387 17.4533 73.408 16.312 73.408 14.904C73.408 12.8133 74.1653 11.1813 75.68 10.008C77.1947 8.81333 79.168 8.216 81.6 8.216C84.0747 8.216 86.0693 8.81333 87.584 10.008C89.0987 11.1813 89.9093 12.824 90.016 14.936H84.096C84.0533 14.2107 83.7867 13.6453 83.296 13.24C82.8053 12.8133 82.176 12.6 81.408 12.6C80.7467 12.6 80.2133 12.7813 79.808 13.144C79.4027 13.4853 79.2 13.9867 79.2 14.648C79.2 15.3733 79.5413 15.9387 80.224 16.344C80.9067 16.7493 81.9733 17.1867 83.424 17.656C84.8747 18.1467 86.048 18.616 86.944 19.064C87.8613 19.512 88.6507 20.1627 89.312 21.016C89.9733 21.8693 90.304 22.968 90.304 24.312C90.304 25.592 89.9733 26.7547 89.312 27.8C88.672 28.8453 87.7333 29.6773 86.496 30.296C85.2587 30.9147 83.7973 31.224 82.112 31.224ZM104.936 31.224C102.823 31.224 100.882 30.7333 99.1115 29.752C97.3622 28.7707 95.9648 27.4053 94.9195 25.656C93.8955 23.8853 93.3835 21.9013 93.3835 19.704C93.3835 17.5067 93.8955 15.5333 94.9195 13.784C95.9648 12.0347 97.3622 10.6693 99.1115 9.688C100.882 8.70667 102.823 8.216 104.936 8.216C107.048 8.216 108.978 8.70667 110.728 9.688C112.498 10.6693 113.885 12.0347 114.888 13.784C115.912 15.5333 116.424 17.5067 116.424 19.704C116.424 21.9013 115.912 23.8853 114.888 25.656C113.863 27.4053 112.477 28.7707 110.728 29.752C108.978 30.7333 107.048 31.224 104.936 31.224ZM104.936 26.232C106.727 26.232 108.157 25.6347 109.223 24.44C110.312 23.2453 110.856 21.6667 110.856 19.704C110.856 17.72 110.312 16.1413 109.223 14.968C108.157 13.7733 106.727 13.176 104.936 13.176C103.122 13.176 101.671 13.7627 100.583 14.936C99.5168 16.1093 98.9835 17.6987 98.9835 19.704C98.9835 21.688 99.5168 23.2773 100.583 24.472C101.671 25.6453 103.122 26.232 104.936 26.232ZM134.092 27.032H125.708L124.364 31H118.636L126.764 8.536H133.1L141.228 31H135.436L134.092 27.032ZM132.684 22.808L129.9 14.584L127.148 22.808H132.684ZM155.797 31L151.125 22.52H149.813V31H144.341V8.536H153.525C155.296 8.536 156.8 8.84533 158.037 9.464C159.296 10.0827 160.235 10.936 160.853 12.024C161.472 13.0907 161.781 14.2853 161.781 15.608C161.781 17.1013 161.355 18.4347 160.501 19.608C159.669 20.7813 158.432 21.6133 156.789 22.104L161.973 31H155.797ZM149.813 18.648H153.205C154.208 18.648 154.955 18.4027 155.445 17.912C155.957 17.4213 156.213 16.728 156.213 15.832C156.213 14.9787 155.957 14.3067 155.445 13.816C154.955 13.3253 154.208 13.08 153.205 13.08H149.813V18.648ZM171.328 12.92V17.464H178.656V21.688H171.328V26.616H179.616V31H165.856V8.536H179.616V12.92H171.328ZM191.937 31.224C190.294 31.224 188.822 30.9573 187.521 30.424C186.22 29.8907 185.174 29.1013 184.385 28.056C183.617 27.0107 183.212 25.752 183.169 24.28H188.993C189.078 25.112 189.366 25.752 189.857 26.2C190.348 26.6267 190.988 26.84 191.777 26.84C192.588 26.84 193.228 26.6587 193.697 26.296C194.166 25.912 194.401 25.3893 194.401 24.728C194.401 24.1733 194.209 23.7147 193.825 23.352C193.462 22.9893 193.004 22.6907 192.449 22.456C191.916 22.2213 191.148 21.9547 190.145 21.656C188.694 21.208 187.51 20.76 186.593 20.312C185.676 19.864 184.886 19.2027 184.225 18.328C183.564 17.4533 183.233 16.312 183.233 14.904C183.233 12.8133 183.99 11.1813 185.505 10.008C187.02 8.81333 188.993 8.216 191.425 8.216C193.9 8.216 195.894 8.81333 197.409 10.008C198.924 11.1813 199.734 12.824 199.841 14.936H193.921C193.878 14.2107 193.612 13.6453 193.121 13.24C192.63 12.8133 192.001 12.6 191.233 12.6C190.572 12.6 190.038 12.7813 189.633 13.144C189.228 13.4853 189.025 13.9867 189.025 14.648C189.025 15.3733 189.366 15.9387 190.049 16.344C190.732 16.7493 191.798 17.1867 193.249 17.656C194.7 18.1467 195.873 18.616 196.769 19.064C197.686 19.512 198.476 20.1627 199.137 21.016C199.798 21.8693 200.129 22.968 200.129 24.312C200.129 25.592 199.798 26.7547 199.137 27.8C198.497 28.8453 197.558 29.6773 196.321 30.296C195.084 30.9147 193.622 31.224 191.937 31.224Z" fill="white"/>
<path d="M82.112 31.224C80.4693 31.224 78.9973 30.9573 77.696 30.424C76.3947 29.8907 75.3493 29.1013 74.56 28.056C73.792 27.0107 73.3867 25.752 73.344 24.28H79.168C79.2533 25.112 79.5413 25.752 80.032 26.2C80.5227 26.6267 81.1627 26.84 81.952 26.84C82.7627 26.84 83.4027 26.6587 83.872 26.296C84.3413 25.912 84.576 25.3893 84.576 24.728C84.576 24.1733 84.384 23.7147 84 23.352C83.6373 22.9893 83.1787 22.6907 82.624 22.456C82.0907 22.2213 81.3227 21.9547 80.32 21.656C78.8693 21.208 77.6853 20.76 76.768 20.312C75.8507 19.864 75.0613 19.2027 74.4 18.328C73.7387 17.4533 73.408 16.312 73.408 14.904C73.408 12.8133 74.1653 11.1813 75.68 10.008C77.1947 8.81333 79.168 8.216 81.6 8.216C84.0747 8.216 86.0693 8.81333 87.584 10.008C89.0987 11.1813 89.9093 12.824 90.016 14.936H84.096C84.0533 14.2107 83.7867 13.6453 83.296 13.24C82.8053 12.8133 82.176 12.6 81.408 12.6C80.7467 12.6 80.2133 12.7813 79.808 13.144C79.4027 13.4853 79.2 13.9867 79.2 14.648C79.2 15.3733 79.5413 15.9387 80.224 16.344C80.9067 16.7493 81.9733 17.1867 83.424 17.656C84.8747 18.1467 86.048 18.616 86.944 19.064C87.8613 19.512 88.6507 20.1627 89.312 21.016C89.9733 21.8693 90.304 22.968 90.304 24.312C90.304 25.592 89.9733 26.7547 89.312 27.8C88.672 28.8453 87.7333 29.6773 86.496 30.296C85.2587 30.9147 83.7973 31.224 82.112 31.224ZM104.936 31.224C102.823 31.224 100.882 30.7333 99.1115 29.752C97.3622 28.7707 95.9648 27.4053 94.9195 25.656C93.8955 23.8853 93.3835 21.9013 93.3835 19.704C93.3835 17.5067 93.8955 15.5333 94.9195 13.784C95.9648 12.0347 97.3622 10.6693 99.1115 9.688C100.882 8.70667 102.823 8.216 104.936 8.216C107.048 8.216 108.978 8.70667 110.728 9.688C112.498 10.6693 113.885 12.0347 114.888 13.784C115.912 15.5333 116.424 17.5067 116.424 19.704C116.424 21.9013 115.912 23.8853 114.888 25.656C113.863 27.4053 112.477 28.7707 110.728 29.752C108.978 30.7333 107.048 31.224 104.936 31.224ZM104.936 26.232C106.727 26.232 108.157 25.6347 109.223 24.44C110.312 23.2453 110.856 21.6667 110.856 19.704C110.856 17.72 110.312 16.1413 109.223 14.968C108.157 13.7733 106.727 13.176 104.936 13.176C103.122 13.176 101.671 13.7627 100.583 14.936C99.5168 16.1093 98.9835 17.6987 98.9835 19.704C98.9835 21.688 99.5168 23.2773 100.583 24.472C101.671 25.6453 103.122 26.232 104.936 26.232ZM134.092 27.032H125.708L124.364 31H118.636L126.764 8.536H133.1L141.228 31H135.436L134.092 27.032ZM132.684 22.808L129.9 14.584L127.148 22.808H132.684ZM155.797 31L151.125 22.52H149.813V31H144.341V8.536H153.525C155.296 8.536 156.8 8.84533 158.037 9.464C159.296 10.0827 160.235 10.936 160.853 12.024C161.472 13.0907 161.781 14.2853 161.781 15.608C161.781 17.1013 161.355 18.4347 160.501 19.608C159.669 20.7813 158.432 21.6133 156.789 22.104L161.973 31H155.797ZM149.813 18.648H153.205C154.208 18.648 154.955 18.4027 155.445 17.912C155.957 17.4213 156.213 16.728 156.213 15.832C156.213 14.9787 155.957 14.3067 155.445 13.816C154.955 13.3253 154.208 13.08 153.205 13.08H149.813V18.648ZM171.328 12.92V17.464H178.656V21.688H171.328V26.616H179.616V31H165.856V8.536H179.616V12.92H171.328ZM191.937 31.224C190.294 31.224 188.822 30.9573 187.521 30.424C186.22 29.8907 185.174 29.1013 184.385 28.056C183.617 27.0107 183.212 25.752 183.169 24.28H188.993C189.078 25.112 189.366 25.752 189.857 26.2C190.348 26.6267 190.988 26.84 191.777 26.84C192.588 26.84 193.228 26.6587 193.697 26.296C194.166 25.912 194.401 25.3893 194.401 24.728C194.401 24.1733 194.209 23.7147 193.825 23.352C193.462 22.9893 193.004 22.6907 192.449 22.456C191.916 22.2213 191.148 21.9547 190.145 21.656C188.694 21.208 187.51 20.76 186.593 20.312C185.676 19.864 184.886 19.2027 184.225 18.328C183.564 17.4533 183.233 16.312 183.233 14.904C183.233 12.8133 183.99 11.1813 185.505 10.008C187.02 8.81333 188.993 8.216 191.425 8.216C193.9 8.216 195.894 8.81333 197.409 10.008C198.924 11.1813 199.734 12.824 199.841 14.936H193.921C193.878 14.2107 193.612 13.6453 193.121 13.24C192.63 12.8133 192.001 12.6 191.233 12.6C190.572 12.6 190.038 12.7813 189.633 13.144C189.228 13.4853 189.025 13.9867 189.025 14.648C189.025 15.3733 189.366 15.9387 190.049 16.344C190.732 16.7493 191.798 17.1867 193.249 17.656C194.7 18.1467 195.873 18.616 196.769 19.064C197.686 19.512 198.476 20.1627 199.137 21.016C199.798 21.8693 200.129 22.968 200.129 24.312C200.129 25.592 199.798 26.7547 199.137 27.8C198.497 28.8453 197.558 29.6773 196.321 30.296C195.084 30.9147 193.622 31.224 191.937 31.224Z" fill="white"/>
<path d="M74.688 40.032V43.76H78.752V44.96H74.688V48.8H79.232V50H73.232V38.832H79.232V40.032H74.688ZM86.8911 48.816H90.7951V50H85.4351V38.848H86.8911V48.816ZM97.7974 40.032V43.76H101.861V44.96H97.7974V48.8H102.341V50H96.3414V38.832H102.341V40.032H97.7974ZM115.409 38.848V40.032H112.369V50H110.913V40.032H107.857V38.848H115.409ZM127.073 50L124.417 45.44H122.657V50H121.201V38.848H124.801C125.643 38.848 126.353 38.992 126.929 39.28C127.515 39.568 127.953 39.9573 128.241 40.448C128.529 40.9387 128.673 41.4987 128.673 42.128C128.673 42.896 128.449 43.5733 128.001 44.16C127.563 44.7467 126.902 45.136 126.017 45.328L128.817 50H127.073ZM122.657 44.272H124.801C125.59 44.272 126.182 44.08 126.577 43.696C126.971 43.3013 127.169 42.7787 127.169 42.128C127.169 41.4667 126.971 40.9547 126.577 40.592C126.193 40.2293 125.601 40.048 124.801 40.048H122.657V44.272ZM136.391 38.848V50H134.935V38.848H136.391ZM142.329 44.416C142.329 43.328 142.574 42.352 143.065 41.488C143.555 40.6133 144.222 39.9307 145.065 39.44C145.918 38.9493 146.862 38.704 147.897 38.704C149.113 38.704 150.174 38.9973 151.081 39.584C151.987 40.1707 152.649 41.0027 153.065 42.08H151.321C151.011 41.408 150.563 40.8907 149.977 40.528C149.401 40.1653 148.707 39.984 147.897 39.984C147.118 39.984 146.419 40.1653 145.801 40.528C145.182 40.8907 144.697 41.408 144.345 42.08C143.993 42.7413 143.817 43.52 143.817 44.416C143.817 45.3013 143.993 46.08 144.345 46.752C144.697 47.4133 145.182 47.9253 145.801 48.288C146.419 48.6507 147.118 48.832 147.897 48.832C148.707 48.832 149.401 48.656 149.977 48.304C150.563 47.9413 151.011 47.424 151.321 46.752H153.065C152.649 47.8187 151.987 48.6453 151.081 49.232C150.174 49.808 149.113 50.096 147.897 50.096C146.862 50.096 145.918 49.856 145.065 49.376C144.222 48.8853 143.555 48.208 143.065 47.344C142.574 46.48 142.329 45.504 142.329 44.416ZM160.688 38.848V50H159.232V38.848H160.688ZM170.706 50.112C169.97 50.112 169.308 49.984 168.722 49.728C168.146 49.4613 167.692 49.0987 167.362 48.64C167.031 48.1707 166.86 47.632 166.85 47.024H168.402C168.455 47.5467 168.668 47.9893 169.042 48.352C169.426 48.704 169.98 48.88 170.706 48.88C171.399 48.88 171.943 48.7093 172.338 48.368C172.743 48.016 172.946 47.568 172.946 47.024C172.946 46.5973 172.828 46.2507 172.594 45.984C172.359 45.7173 172.066 45.5147 171.714 45.376C171.362 45.2373 170.887 45.088 170.29 44.928C169.554 44.736 168.962 44.544 168.514 44.352C168.076 44.16 167.698 43.8613 167.378 43.456C167.068 43.04 166.914 42.4853 166.914 41.792C166.914 41.184 167.068 40.6453 167.378 40.176C167.687 39.7067 168.119 39.344 168.674 39.088C169.239 38.832 169.884 38.704 170.61 38.704C171.655 38.704 172.508 38.9653 173.17 39.488C173.842 40.0107 174.22 40.704 174.306 41.568H172.706C172.652 41.1413 172.428 40.768 172.034 40.448C171.639 40.1173 171.116 39.952 170.466 39.952C169.858 39.952 169.362 40.112 168.978 40.432C168.594 40.7413 168.402 41.1787 168.402 41.744C168.402 42.1493 168.514 42.48 168.738 42.736C168.972 42.992 169.255 43.1893 169.586 43.328C169.927 43.456 170.402 43.6053 171.01 43.776C171.746 43.9787 172.338 44.1813 172.786 44.384C173.234 44.576 173.618 44.88 173.938 45.296C174.258 45.7013 174.418 46.256 174.418 46.96C174.418 47.504 174.274 48.016 173.986 48.496C173.698 48.976 173.271 49.3653 172.706 49.664C172.14 49.9627 171.474 50.112 170.706 50.112ZM187.424 38.848V40.032H184.384V50H182.928V40.032H179.872V38.848H187.424ZM199.808 47.52H194.944L194.048 50H192.512L196.544 38.912H198.224L202.24 50H200.704L199.808 47.52ZM199.392 46.336L197.376 40.704L195.36 46.336H199.392Z" fill="white"/>
<path d="M74.688 40.032V43.76H78.752V44.96H74.688V48.8H79.232V50H73.232V38.832H79.232V40.032H74.688ZM86.8911 48.816H90.7951V50H85.4351V38.848H86.8911V48.816ZM97.7974 40.032V43.76H101.861V44.96H97.7974V48.8H102.341V50H96.3414V38.832H102.341V40.032H97.7974ZM115.409 38.848V40.032H112.369V50H110.913V40.032H107.857V38.848H115.409ZM127.073 50L124.417 45.44H122.657V50H121.201V38.848H124.801C125.643 38.848 126.353 38.992 126.929 39.28C127.515 39.568 127.953 39.9573 128.241 40.448C128.529 40.9387 128.673 41.4987 128.673 42.128C128.673 42.896 128.449 43.5733 128.001 44.16C127.563 44.7467 126.902 45.136 126.017 45.328L128.817 50H127.073ZM122.657 44.272H124.801C125.59 44.272 126.182 44.08 126.577 43.696C126.971 43.3013 127.169 42.7787 127.169 42.128C127.169 41.4667 126.971 40.9547 126.577 40.592C126.193 40.2293 125.601 40.048 124.801 40.048H122.657V44.272ZM136.391 38.848V50H134.935V38.848H136.391ZM142.329 44.416C142.329 43.328 142.574 42.352 143.065 41.488C143.555 40.6133 144.222 39.9307 145.065 39.44C145.918 38.9493 146.862 38.704 147.897 38.704C149.113 38.704 150.174 38.9973 151.081 39.584C151.987 40.1707 152.649 41.0027 153.065 42.08H151.321C151.011 41.408 150.563 40.8907 149.977 40.528C149.401 40.1653 148.707 39.984 147.897 39.984C147.118 39.984 146.419 40.1653 145.801 40.528C145.182 40.8907 144.697 41.408 144.345 42.08C143.993 42.7413 143.817 43.52 143.817 44.416C143.817 45.3013 143.993 46.08 144.345 46.752C144.697 47.4133 145.182 47.9253 145.801 48.288C146.419 48.6507 147.118 48.832 147.897 48.832C148.707 48.832 149.401 48.656 149.977 48.304C150.563 47.9413 151.011 47.424 151.321 46.752H153.065C152.649 47.8187 151.987 48.6453 151.081 49.232C150.174 49.808 149.113 50.096 147.897 50.096C146.862 50.096 145.918 49.856 145.065 49.376C144.222 48.8853 143.555 48.208 143.065 47.344C142.574 46.48 142.329 45.504 142.329 44.416ZM160.688 38.848V50H159.232V38.848H160.688ZM170.706 50.112C169.97 50.112 169.308 49.984 168.722 49.728C168.146 49.4613 167.692 49.0987 167.362 48.64C167.031 48.1707 166.86 47.632 166.85 47.024H168.402C168.455 47.5467 168.668 47.9893 169.042 48.352C169.426 48.704 169.98 48.88 170.706 48.88C171.399 48.88 171.943 48.7093 172.338 48.368C172.743 48.016 172.946 47.568 172.946 47.024C172.946 46.5973 172.828 46.2507 172.594 45.984C172.359 45.7173 172.066 45.5147 171.714 45.376C171.362 45.2373 170.887 45.088 170.29 44.928C169.554 44.736 168.962 44.544 168.514 44.352C168.076 44.16 167.698 43.8613 167.378 43.456C167.068 43.04 166.914 42.4853 166.914 41.792C166.914 41.184 167.068 40.6453 167.378 40.176C167.687 39.7067 168.119 39.344 168.674 39.088C169.239 38.832 169.884 38.704 170.61 38.704C171.655 38.704 172.508 38.9653 173.17 39.488C173.842 40.0107 174.22 40.704 174.306 41.568H172.706C172.652 41.1413 172.428 40.768 172.034 40.448C171.639 40.1173 171.116 39.952 170.466 39.952C169.858 39.952 169.362 40.112 168.978 40.432C168.594 40.7413 168.402 41.1787 168.402 41.744C168.402 42.1493 168.514 42.48 168.738 42.736C168.972 42.992 169.255 43.1893 169.586 43.328C169.927 43.456 170.402 43.6053 171.01 43.776C171.746 43.9787 172.338 44.1813 172.786 44.384C173.234 44.576 173.618 44.88 173.938 45.296C174.258 45.7013 174.418 46.256 174.418 46.96C174.418 47.504 174.274 48.016 173.986 48.496C173.698 48.976 173.271 49.3653 172.706 49.664C172.14 49.9627 171.474 50.112 170.706 50.112ZM187.424 38.848V40.032H184.384V50H182.928V40.032H179.872V38.848H187.424ZM199.808 47.52H194.944L194.048 50H192.512L196.544 38.912H198.224L202.24 50H200.704L199.808 47.52ZM199.392 46.336L197.376 40.704L195.36 46.336H199.392Z" fill="white"/>
<rect x="0.5" y="0.5" width="55" height="55" rx="27.5" fill="black"/>
<path d="M19.4 15L14 29.9294H41L35.9176 15H19.4Z" stroke="white" stroke-width="1.5"/>
<line x1="28.0911" y1="29.6118" x2="28.0911" y2="41.6824" stroke="white" stroke-width="1.5"/>
<line x1="19.7175" y1="40.9326" x2="34.9646" y2="40.9326" stroke="white" stroke-width="1.5"/>
<rect x="0.5" y="0.5" width="55" height="55" rx="27.5" stroke="white"/>
</svg>
