<svg width="60" height="60" viewBox="0 0 60 60" fill="none" xmlns="http://www.w3.org/2000/svg">
<path d="M43.3594 9.43359C39.7383 9.43359 36.7969 12.375 36.7969 15.9961C36.7969 18.9316 38.7363 21.4219 41.3965 22.2598V27.8789L18.75 35.2969V18.6387C21.3398 17.7598 23.2031 15.3047 23.2031 12.4219C23.2031 8.80078 20.2617 5.85938 16.6406 5.85938C13.0195 5.85938 10.0781 8.80078 10.0781 12.4219C10.0781 15.3047 11.9414 17.7539 14.5312 18.6387V41.3672C11.9414 42.2461 10.0781 44.7012 10.0781 47.584C10.0781 51.2051 13.0195 54.1465 16.6406 54.1465C20.2617 54.1465 23.2031 51.2051 23.2031 47.584C23.2031 44.7012 21.3398 42.252 18.75 41.3672V39.7383L43.5645 31.6113C44.1603 31.4176 44.6794 31.0398 45.0469 30.5323C45.4143 30.0247 45.6113 29.4137 45.6094 28.7871V22.1602C48.123 21.2344 49.9219 18.8203 49.9219 15.9961C49.9219 12.375 46.9805 9.43359 43.3594 9.43359ZM13.8281 12.4219C13.8431 11.6859 14.1461 10.9851 14.6719 10.4699C15.1977 9.95475 15.9045 9.6662 16.6406 9.6662C17.3768 9.6662 18.0836 9.95475 18.6094 10.4699C19.1352 10.9851 19.4381 11.6859 19.4531 12.4219C19.4381 13.1579 19.1352 13.8586 18.6094 14.3738C18.0836 14.889 17.3768 15.1775 16.6406 15.1775C15.9045 15.1775 15.1977 14.889 14.6719 14.3738C14.1461 13.8586 13.8431 13.1579 13.8281 12.4219ZM19.4531 47.5781C19.4381 48.3141 19.1352 49.0149 18.6094 49.5301C18.0836 50.0452 17.3768 50.3338 16.6406 50.3338C15.9045 50.3338 15.1977 50.0452 14.6719 49.5301C14.1461 49.0149 13.8431 48.3141 13.8281 47.5781C13.8431 46.8421 14.1461 46.1414 14.6719 45.6262C15.1977 45.111 15.9045 44.8225 16.6406 44.8225C17.3768 44.8225 18.0836 45.111 18.6094 45.6262C19.1352 46.1414 19.4381 46.8421 19.4531 47.5781ZM43.3594 18.8086C42.6234 18.7936 41.9226 18.4907 41.4074 17.9648C40.8923 17.439 40.6037 16.7322 40.6037 15.9961C40.6037 15.26 40.8923 14.5532 41.4074 14.0273C41.9226 13.5015 42.6234 13.1986 43.3594 13.1836C44.0954 13.1986 44.7961 13.5015 45.3113 14.0273C45.8265 14.5532 46.115 15.26 46.115 15.9961C46.115 16.7322 45.8265 17.439 45.3113 17.9648C44.7961 18.4907 44.0954 18.7936 43.3594 18.8086Z" fill="#0C12A6"/>
</svg>
