<svg width="60" height="60" viewBox="0 0 60 60" fill="none" xmlns="http://www.w3.org/2000/svg">
<g clip-path="url(#clip0_5_317)">
<path fill-rule="evenodd" clip-rule="evenodd" d="M55.3612 0.281297C55.6329 0.449276 55.8571 0.683844 56.0126 0.962759C56.1681 1.24168 56.2498 1.5557 56.25 1.87505V58.125C56.25 58.6223 56.0525 59.0992 55.7008 59.4509C55.3492 59.8025 54.8723 60 54.375 60H43.125C42.6277 60 42.1508 59.8025 41.7992 59.4509C41.4475 59.0992 41.25 58.6223 41.25 58.125V52.5H37.5V58.125C37.5 58.6223 37.3025 59.0992 36.9508 59.4509C36.5992 59.8025 36.1223 60 35.625 60H1.875C1.37772 60 0.900806 59.8025 0.549175 59.4509C0.197544 59.0992 0 58.6223 0 58.125V37.5C0.000298675 37.1067 0.124305 36.7234 0.354469 36.4044C0.584632 36.0854 0.909293 35.8469 1.2825 35.7225L22.5 28.65V16.875C22.5 16.5271 22.5968 16.1861 22.7796 15.89C22.9624 15.594 23.2239 15.3547 23.535 15.1988L53.535 0.198797C53.8211 0.0555693 54.1392 -0.012042 54.4589 0.00239883C54.7785 0.0168397 55.0892 0.112852 55.3612 0.281297ZM22.5 32.6026L3.75 38.85V56.25H22.5V32.6026ZM26.25 56.25H33.75V50.625C33.75 50.1278 33.9475 49.6509 34.2992 49.2992C34.6508 48.9476 35.1277 48.75 35.625 48.75H43.125C43.6223 48.75 44.0992 48.9476 44.4508 49.2992C44.8025 49.6509 45 50.1278 45 50.625V56.25H52.5V4.9088L26.25 18.0338V56.25Z" fill="#0C12A6"/>
<path d="M7.5 41.25H11.25V45H7.5V41.25ZM15 41.25H18.75V45H15V41.25ZM7.5 48.75H11.25V52.5H7.5V48.75ZM15 48.75H18.75V52.5H15V48.75ZM30 33.75H33.75V37.5H30V33.75ZM37.5 33.75H41.25V37.5H37.5V33.75ZM30 41.25H33.75V45H30V41.25ZM37.5 41.25H41.25V45H37.5V41.25ZM45 33.75H48.75V37.5H45V33.75ZM45 41.25H48.75V45H45V41.25ZM30 26.25H33.75V30H30V26.25ZM37.5 26.25H41.25V30H37.5V26.25ZM45 26.25H48.75V30H45V26.25ZM30 18.75H33.75V22.5H30V18.75ZM37.5 18.75H41.25V22.5H37.5V18.75ZM45 18.75H48.75V22.5H45V18.75ZM45 11.25H48.75V15H45V11.25Z" fill="#0C12A6"/>
</g>
<defs>
<clipPath id="clip0_5_317">
<rect width="60" height="60" fill="white"/>
</clipPath>
</defs>
</svg>
