<svg width="49" height="48" viewBox="0 0 49 48" fill="none" xmlns="http://www.w3.org/2000/svg">
<path d="M40.5 8H8.5C6.3 8 4.52 9.8 4.52 12L4.5 36C4.5 38.2 6.3 40 8.5 40H40.5C42.7 40 44.5 38.2 44.5 36V12C44.5 9.8 42.7 8 40.5 8ZM39.7 16.5L25.56 25.34C24.92 25.74 24.08 25.74 23.44 25.34L9.3 16.5C9.09945 16.3874 8.92384 16.2353 8.78378 16.0529C8.64372 15.8705 8.54212 15.6616 8.48515 15.4387C8.42818 15.2159 8.41701 14.9839 8.45231 14.7566C8.48762 14.5294 8.56867 14.3116 8.69056 14.1166C8.81245 13.9216 8.97265 13.7533 9.16145 13.622C9.35026 13.4907 9.56374 13.399 9.78899 13.3526C10.0142 13.3062 10.2466 13.3059 10.4719 13.3519C10.6973 13.3979 10.9109 13.4891 11.1 13.62L24.5 22L37.9 13.62C38.0891 13.4891 38.3027 13.3979 38.5281 13.3519C38.7534 13.3059 38.9858 13.3062 39.211 13.3526C39.4363 13.399 39.6497 13.4907 39.8385 13.622C40.0274 13.7533 40.1875 13.9216 40.3094 14.1166C40.4313 14.3116 40.5124 14.5294 40.5477 14.7566C40.583 14.9839 40.5718 15.2159 40.5149 15.4387C40.4579 15.6616 40.3563 15.8705 40.2162 16.0529C40.0762 16.2353 39.9005 16.3874 39.7 16.5Z" fill="#020218"/>
</svg>
