<svg width="60" height="60" viewBox="0 0 60 60" fill="none" xmlns="http://www.w3.org/2000/svg">
<path d="M25 55C24.2917 55 23.6983 54.76 23.22 54.28C22.74 53.8017 22.5 53.2083 22.5 52.5V43L14.25 47.75C13.6667 48.0833 13.0417 48.1567 12.375 47.97C11.7083 47.7817 11.2083 47.3958 10.875 46.8125L5.87499 38.1875C5.54166 37.6042 5.45832 36.9683 5.62499 36.28C5.79166 35.5933 6.16666 35.0833 6.74999 34.75L15 30L6.74999 25.25C6.16666 24.9167 5.79166 24.4058 5.62499 23.7175C5.45832 23.0308 5.54166 22.3958 5.87499 21.8125L10.875 13.1875C11.2083 12.6042 11.7083 12.2183 12.375 12.03C13.0417 11.8433 13.6667 11.9167 14.25 12.25L22.5 17V7.5C22.5 6.79167 22.74 6.1975 23.22 5.7175C23.6983 5.23917 24.2917 5 25 5H35C35.7083 5 36.3025 5.23917 36.7825 5.7175C37.2608 6.1975 37.5 6.79167 37.5 7.5V17L45.75 12.25C46.3333 11.9167 46.9583 11.8433 47.625 12.03C48.2917 12.2183 48.7917 12.6042 49.125 13.1875L54.125 21.8125C54.4583 22.3958 54.5417 23.0308 54.375 23.7175C54.2083 24.4058 53.8333 24.9167 53.25 25.25L45 30L53.25 34.75C53.8333 35.0833 54.2083 35.5933 54.375 36.28C54.5417 36.9683 54.4583 37.6042 54.125 38.1875L49.125 46.8125C48.7917 47.3958 48.2917 47.7817 47.625 47.97C46.9583 48.1567 46.3333 48.0833 45.75 47.75L37.5 43V52.5C37.5 53.2083 37.2608 53.8017 36.7825 54.28C36.3025 54.76 35.7083 55 35 55H25ZM27.5 50H32.5V36.5C32.5 36 32.7083 35.635 33.125 35.405C33.5417 35.1767 33.9583 35.1875 34.375 35.4375L46.0625 42.1875L48.5625 37.8125L36.875 31.0625C36.4583 30.8125 36.25 30.4475 36.25 29.9675C36.25 29.4892 36.4583 29.125 36.875 28.875L48.5625 22.125L46.0625 17.8125L34.375 24.5625C33.9583 24.8125 33.5417 24.8225 33.125 24.5925C32.7083 24.3642 32.5 24 32.5 23.5V10H27.5V23.5C27.5 23.9583 27.3017 24.3125 26.905 24.5625C26.51 24.8125 26.0833 24.8333 25.625 24.625L13.9375 17.875L11.4375 22.1875L23.125 28.9375C23.5417 29.1875 23.75 29.5517 23.75 30.03C23.75 30.51 23.5417 30.875 23.125 31.125L11.4375 37.875L13.9375 42.1875L25.625 35.4375C26.0417 35.1875 26.4583 35.1767 26.875 35.405C27.2917 35.635 27.5 36 27.5 36.5V50Z" fill="#0C12A6"/>
</svg>
