<svg width="49" height="48" viewBox="0 0 49 48" fill="none" xmlns="http://www.w3.org/2000/svg">
<path d="M24.5 3C20.1255 3.00516 15.9317 4.74521 12.8385 7.83844C9.74522 10.9317 8.00518 15.1255 8.00002 19.5C7.99478 23.0748 9.16249 26.5527 11.324 29.4C11.324 29.4 11.774 29.9925 11.8475 30.078L24.5 45L37.1585 30.0705C37.2245 29.991 37.676 29.4 37.676 29.4L37.6775 29.3955C39.838 26.5494 41.0051 23.0732 41 19.5C40.9949 15.1255 39.2548 10.9317 36.1616 7.83844C33.0683 4.74521 28.8745 3.00516 24.5 3V3ZM24.5 25.5C23.3133 25.5 22.1533 25.1481 21.1666 24.4888C20.1799 23.8295 19.4109 22.8925 18.9567 21.7961C18.5026 20.6997 18.3838 19.4933 18.6153 18.3295C18.8468 17.1656 19.4183 16.0965 20.2574 15.2574C21.0965 14.4182 22.1656 13.8468 23.3295 13.6153C24.4934 13.3838 25.6998 13.5026 26.7961 13.9567C27.8925 14.4108 28.8295 15.1799 29.4888 16.1666C30.1481 17.1533 30.5 18.3133 30.5 19.5C30.498 21.0907 29.8653 22.6157 28.7405 23.7404C27.6157 24.8652 26.0907 25.498 24.5 25.5V25.5Z" fill="#020218"/>
</svg>
