<svg width="49" height="48" viewBox="0 0 49 48" fill="none" xmlns="http://www.w3.org/2000/svg">
<g clip-path="url(#clip0_21_68)">
<path d="M35.492 28.7655C34.8905 28.461 31.961 27.0315 31.4135 26.8275C30.866 26.6325 30.4685 26.5305 30.0695 27.132C29.6795 27.7185 28.5305 29.061 28.1795 29.4525C27.8285 29.844 27.4835 29.874 26.891 29.6085C26.2895 29.304 24.368 28.6785 22.0865 26.6325C20.3045 25.047 19.118 23.094 18.7655 22.4925C18.4145 21.8985 18.7265 21.5625 19.0235 21.2655C19.2965 20.9925 19.625 20.5785 19.9295 20.2185C20.219 19.8585 20.312 19.617 20.5235 19.227C20.7185 18.8055 20.618 18.477 20.4695 18.18C20.321 17.883 19.1255 14.9385 18.626 13.7655C18.149 12.6015 17.6495 12.75 17.282 12.75C16.9385 12.7185 16.5395 12.7185 16.142 12.7185C15.7445 12.7185 15.095 12.867 14.5475 13.437C14 14.0385 12.4535 15.4755 12.4535 18.3825C12.4535 21.297 14.594 24.117 14.891 24.5385C15.1955 24.9285 19.1015 30.9285 25.094 33.507C26.5235 34.1085 27.6335 34.4685 28.5005 34.7655C29.93 35.2185 31.235 35.1555 32.2655 35.007C33.4055 34.8195 35.7965 33.561 36.2975 32.1555C36.806 30.741 36.806 29.5695 36.6575 29.304C36.509 29.031 36.119 28.8825 35.5175 28.617L35.492 28.7655ZM24.6245 43.5H24.593C21.0455 43.5 17.5385 42.5385 14.4755 40.7415L13.757 40.3125L6.257 42.2655L8.273 34.968L7.7885 34.218C5.8077 31.0685 4.75685 27.4236 4.757 23.703C4.757 12.813 13.6715 3.93 24.6395 3.93C29.9525 3.93 34.937 6 38.687 9.75C40.5369 11.5779 42.0043 13.7559 43.0035 16.1569C44.0028 18.5579 44.5139 21.1339 44.507 23.7345C44.492 34.617 35.585 43.5 24.632 43.5H24.6245ZM41.5385 6.8985C36.9755 2.4915 30.9755 0 24.593 0C11.429 0 0.71 10.6725 0.7025 23.7885C0.7025 27.9765 1.796 32.0625 3.89 35.679L0.5 48L13.172 44.6955C16.6825 46.5881 20.6063 47.5837 24.5945 47.5935H24.602C37.7735 47.5935 48.4925 36.921 48.5 23.796C48.5 17.445 46.0235 11.4675 41.5085 6.975L41.5385 6.8985Z" fill="white"/>
</g>
<defs>
<clipPath id="clip0_21_68">
<rect width="48" height="48" fill="white" transform="translate(0.5)"/>
</clipPath>
</defs>
</svg>
